<?xml version="1.0" encoding="UTF-8" standalone="no"?>
<svg
   xmlns:dc="http://purl.org/dc/elements/1.1/"
   xmlns:cc="http://creativecommons.org/ns#"
   xmlns:rdf="http://www.w3.org/1999/02/22-rdf-syntax-ns#"
   xmlns:svg="http://www.w3.org/2000/svg"
   xmlns="http://www.w3.org/2000/svg"
   xmlns:sodipodi="http://sodipodi.sourceforge.net/DTD/sodipodi-0.dtd"
   xmlns:inkscape="http://www.inkscape.org/namespaces/inkscape"
   width="190"
   height="50"
   viewBox="0 0 50.270832 13.229167"
   version="1.1"
   id="svg8"
   inkscape:version="1.0.2 (e86c870879, 2021-01-15)"
   sodipodi:docname="logo2.svg">
  <defs
     id="defs2" />
  <sodipodi:namedview
     id="base"
     pagecolor="#ffffff"
     bordercolor="#666666"
     borderopacity="1.0"
     inkscape:pageopacity="0.0"
     inkscape:pageshadow="2"
     inkscape:zoom="2.658375"
     inkscape:cx="95.8013"
     inkscape:cy="63.569882"
     inkscape:document-units="mm"
     inkscape:current-layer="layer1"
     inkscape:document-rotation="0"
     showgrid="false"
     units="px"
     inkscape:window-width="1316"
     inkscape:window-height="744"
     inkscape:window-x="50"
     inkscape:window-y="0"
     inkscape:window-maximized="1" />
  <metadata
     id="metadata5">
    <rdf:RDF>
      <cc:Work
         rdf:about="">
        <dc:format>image/svg+xml</dc:format>
        <dc:type
           rdf:resource="http://purl.org/dc/dcmitype/StillImage" />
        <dc:title />
      </cc:Work>
    </rdf:RDF>
  </metadata>
  <g
     inkscape:label="Layer 1"
     inkscape:groupmode="layer"
     id="layer1">
    <g
       aria-label="Mar&amp;Cia"
       id="text835"
       style="font-size:9.93661px;line-height:1.25;font-family:serif;-inkscape-font-specification:serif;letter-spacing:0px;word-spacing:0px;fill:#ffffff;stroke-width:0.248416">
      <path
         style="color:#000000;font-style:normal;font-variant:normal;font-weight:normal;font-stretch:normal;font-size:9.93661px;line-height:1.25;font-family:'Antique Olive T Compact';-inkscape-font-specification:'Antique Olive T Compact, Normal';font-variant-ligatures:normal;font-variant-position:normal;font-variant-caps:normal;font-variant-numeric:normal;font-variant-alternates:normal;font-variant-east-asian:normal;font-feature-settings:normal;font-variation-settings:normal;text-indent:0;text-align:start;text-decoration:none;text-decoration-line:none;text-decoration-style:solid;text-decoration-color:#000000;letter-spacing:0px;word-spacing:0px;text-transform:none;writing-mode:lr-tb;direction:ltr;text-orientation:mixed;dominant-baseline:auto;baseline-shift:baseline;text-anchor:start;white-space:normal;shape-padding:0;shape-margin:0;inline-size:0;clip-rule:nonzero;display:inline;overflow:visible;visibility:visible;isolation:auto;mix-blend-mode:normal;color-interpolation:sRGB;color-interpolation-filters:linearRGB;solid-color:#000000;solid-opacity:1;vector-effect:none;fill:#ffffff;fill-opacity:1;fill-rule:nonzero;stroke-width:0.248416;stroke-linecap:butt;stroke-linejoin:miter;stroke-miterlimit:4;stroke-dasharray:none;stroke-dashoffset:0;stroke-opacity:1;color-rendering:auto;image-rendering:auto;shape-rendering:auto;text-rendering:auto;enable-background:accumulate;stop-color:#000000;stop-opacity:1;stroke:none;opacity:1"
         d="M 11.255182,3.7479228 H 8.0754666 L 7.1513618,5.3377804 C 6.7837072,5.9141038 6.4756723,6.5301737 6.3166866,6.9971943 h -0.039746 c 0.02981,-0.3775911 0.02981,-0.4173376 0.02981,-0.5167037 0,-0.1093027 -0.019873,-0.6955627 -0.02981,-0.7452458 L 6.0583347,3.7479228 H 2.8189998 L 1.2291421,10.375642 H 3.6834848 L 4.1505055,8.4280662 C 4.2896181,7.8020598 4.3989208,6.9971943 4.4088574,6.6593496 h 0.049683 l 0.00994,0.228542 c 0.019873,0.2782251 0.02981,0.3676546 0.069556,0.8446119 0.049683,0.5663868 0.069556,0.6955627 0.079493,0.7949288 L 4.826195,10.375642 H 6.1676374 L 7.5090798,8.050475 C 7.7972415,7.5437079 7.9959737,7.1561801 8.2145791,6.6593496 h 0.049683 C 8.0854032,7.1561801 7.9462906,7.6331374 7.7177486,8.5274323 L 7.2706011,10.375642 h 2.3947231 z"
         id="path832" />
      <path
         style="color:#000000;font-style:normal;font-variant:normal;font-weight:normal;font-stretch:normal;font-size:9.93661px;line-height:1.25;font-family:'Antique Olive T Compact';-inkscape-font-specification:'Antique Olive T Compact, Normal';font-variant-ligatures:normal;font-variant-position:normal;font-variant-caps:normal;font-variant-numeric:normal;font-variant-alternates:normal;font-variant-east-asian:normal;font-feature-settings:normal;font-variation-settings:normal;text-indent:0;text-align:start;text-decoration:none;text-decoration-line:none;text-decoration-style:solid;text-decoration-color:#000000;letter-spacing:0px;word-spacing:0px;text-transform:none;writing-mode:lr-tb;direction:ltr;text-orientation:mixed;dominant-baseline:auto;baseline-shift:baseline;text-anchor:start;white-space:normal;shape-padding:0;shape-margin:0;inline-size:0;clip-rule:nonzero;display:inline;overflow:visible;visibility:visible;isolation:auto;mix-blend-mode:normal;color-interpolation:sRGB;color-interpolation-filters:linearRGB;solid-color:#000000;solid-opacity:1;vector-effect:none;fill:#ffffff;fill-opacity:1;fill-rule:nonzero;stroke-width:0.248416;stroke-linecap:butt;stroke-linejoin:miter;stroke-miterlimit:4;stroke-dasharray:none;stroke-dashoffset:0;stroke-opacity:1;color-rendering:auto;image-rendering:auto;shape-rendering:auto;text-rendering:auto;enable-background:accumulate;stop-color:#000000;stop-opacity:1;stroke:none;opacity:1"
         d="m 18.310169,4.7813303 h -2.513962 c -0.05962,0.178859 -0.06956,0.2384786 -0.119239,0.5365769 l -0.11924,0.6558163 h -0.04968 V 5.834611 c 0,-0.894295 -0.467021,-1.2718862 -1.540174,-1.2718862 -1.112901,0 -1.8184,0.3974645 -2.325167,1.3215692 -0.417338,0.7452458 -0.735309,1.987322 -0.735309,2.881617 0,1.1228369 0.596196,1.69916 1.748843,1.69916 1.073154,0 1.599794,-0.308035 2.066815,-1.2222027 h 0.04968 C 14.61375,9.6800791 14.474638,10.17691 14.454764,10.375642 h 2.513963 z M 14.564067,6.649413 c 0.427274,0 0.655816,0.178859 0.655816,0.5167037 0,0.2682885 -0.109302,0.6856261 -0.258351,0.993661 -0.178859,0.3676546 -0.467021,0.5564502 -0.844612,0.5564502 -0.397465,0 -0.61607,-0.2086688 -0.61607,-0.5763234 0,-0.8843583 0.437211,-1.4904915 1.063217,-1.4904915 z"
         id="path834" />
      <path
         style="color:#000000;font-style:normal;font-variant:normal;font-weight:normal;font-stretch:normal;font-size:9.93661px;line-height:1.25;font-family:'Antique Olive T Compact';-inkscape-font-specification:'Antique Olive T Compact, Normal';font-variant-ligatures:normal;font-variant-position:normal;font-variant-caps:normal;font-variant-numeric:normal;font-variant-alternates:normal;font-variant-east-asian:normal;font-feature-settings:normal;font-variation-settings:normal;text-indent:0;text-align:start;text-decoration:none;text-decoration-line:none;text-decoration-style:solid;text-decoration-color:#000000;letter-spacing:0px;word-spacing:0px;text-transform:none;writing-mode:lr-tb;direction:ltr;text-orientation:mixed;dominant-baseline:auto;baseline-shift:baseline;text-anchor:start;white-space:normal;shape-padding:0;shape-margin:0;inline-size:0;clip-rule:nonzero;display:inline;overflow:visible;visibility:visible;isolation:auto;mix-blend-mode:normal;color-interpolation:sRGB;color-interpolation-filters:linearRGB;solid-color:#000000;solid-opacity:1;vector-effect:none;fill:#ffffff;fill-opacity:1;fill-rule:nonzero;stroke-width:0.248416;stroke-linecap:butt;stroke-linejoin:miter;stroke-miterlimit:4;stroke-dasharray:none;stroke-dashoffset:0;stroke-opacity:1;color-rendering:auto;image-rendering:auto;shape-rendering:auto;text-rendering:auto;enable-background:accumulate;stop-color:#000000;stop-opacity:1;stroke:none;opacity:1"
         d="m 23.487132,4.7813303 c -0.238479,-0.05962 -0.427274,-0.079493 -0.655816,-0.079493 -0.357718,0 -0.7055,0.1093027 -0.973788,0.3179715 -0.288162,0.2186054 -0.476957,0.5067671 -0.725373,1.122837 h -0.02981 c 0.0099,-0.079493 0.02981,-0.1589858 0.04968,-0.2384787 0.04968,-0.1589857 0.08943,-0.3179715 0.129176,-0.4868939 l 0.09937,-0.4868939 0.03975,-0.1490491 h -2.25561 l -1.341443,5.5943118 h 2.513963 l 0.397464,-1.639541 c 0.129176,-0.5564501 0.327908,-0.9539145 0.55645,-1.1228369 0.258352,-0.1887956 0.635943,-0.2881617 1.073154,-0.2881617 0.149049,0 0.258352,0.00994 0.506767,0.02981 z"
         id="path836" />
      <path
         style="color:#000000;font-style:normal;font-variant:normal;font-weight:normal;font-stretch:normal;font-size:9.93661px;line-height:1.25;font-family:'Antique Olive T Compact';-inkscape-font-specification:'Antique Olive T Compact, Normal';font-variant-ligatures:normal;font-variant-position:normal;font-variant-caps:normal;font-variant-numeric:normal;font-variant-alternates:normal;font-variant-east-asian:normal;font-feature-settings:normal;font-variation-settings:normal;text-indent:0;text-align:start;text-decoration:none;text-decoration-line:none;text-decoration-style:solid;text-decoration-color:#000000;letter-spacing:0px;word-spacing:0px;text-transform:none;writing-mode:lr-tb;direction:ltr;text-orientation:mixed;dominant-baseline:auto;baseline-shift:baseline;text-anchor:start;white-space:normal;shape-padding:0;shape-margin:0;inline-size:0;clip-rule:nonzero;display:inline;overflow:visible;visibility:visible;isolation:auto;mix-blend-mode:normal;color-interpolation:sRGB;color-interpolation-filters:linearRGB;solid-color:#000000;solid-opacity:1;vector-effect:none;fill:#ffffff;fill-opacity:1;fill-rule:nonzero;stroke-width:0.248416;stroke-linecap:butt;stroke-linejoin:miter;stroke-miterlimit:4;stroke-dasharray:none;stroke-dashoffset:0;stroke-opacity:1;color-rendering:auto;image-rendering:auto;shape-rendering:auto;text-rendering:auto;enable-background:accumulate;stop-color:#000000;stop-opacity:1;stroke:none;opacity:1"
         d="m 28.852889,6.5599835 -0.03975,0.069556 C 28.713776,6.7984621 28.67403,6.8382086 28.495171,7.007131 L 28.14739,6.5599835 c 1.132773,-0.4670207 1.75878,-1.1327736 1.75878,-1.8978926 0,-0.8346752 -0.725373,-1.2917593 -2.046942,-1.2917593 -0.695563,0 -1.371252,0.1391126 -1.828336,0.3875278 -0.695563,0.3676546 -1.162584,1.0135343 -1.162584,1.6097309 0,0.3080349 0.09937,0.58626 0.357718,0.9837244 -0.655816,0.2484152 -0.904231,0.3676546 -1.152646,0.5465135 -0.67569,0.4670207 -1.112901,1.2222031 -1.112901,1.8978926 0,0.9737878 0.844612,1.6494772 2.056878,1.6494772 0.884359,0 1.778654,-0.248415 2.613329,-0.7353091 l 0.457084,0.6657531 h 3.120096 L 29.687564,8.4876859 C 30.472556,7.7325035 30.929641,7.1561801 31.207866,6.5599835 Z M 27.382271,5.4669564 c -0.109303,-0.1987322 -0.149049,-0.2980983 -0.149049,-0.407401 0,-0.2682885 0.238478,-0.5067672 0.49683,-0.5067672 0.168922,0 0.288162,0.099366 0.288162,0.2285421 0,0.228542 -0.188796,0.4372108 -0.635943,0.6856261 z m -0.61607,3.0604759 c -0.298098,0.2285421 -0.536577,0.3179715 -0.804866,0.3179715 -0.298098,0 -0.486893,-0.1987322 -0.486893,-0.5167037 0,-0.3378447 0.09937,-0.4868939 0.566386,-0.8247386 z"
         id="path838" />
      <path
         style="color:#000000;font-style:normal;font-variant:normal;font-weight:normal;font-stretch:normal;font-size:9.93661px;line-height:1.25;font-family:'Antique Olive T Compact';-inkscape-font-specification:'Antique Olive T Compact, Normal';font-variant-ligatures:normal;font-variant-position:normal;font-variant-caps:normal;font-variant-numeric:normal;font-variant-alternates:normal;font-variant-east-asian:normal;font-feature-settings:normal;font-variation-settings:normal;text-indent:0;text-align:start;text-decoration:none;text-decoration-line:none;text-decoration-style:solid;text-decoration-color:#000000;letter-spacing:0px;word-spacing:0px;text-transform:none;writing-mode:lr-tb;direction:ltr;text-orientation:mixed;dominant-baseline:auto;baseline-shift:baseline;text-anchor:start;white-space:normal;shape-padding:0;shape-margin:0;inline-size:0;clip-rule:nonzero;display:inline;overflow:visible;visibility:visible;isolation:auto;mix-blend-mode:normal;color-interpolation:sRGB;color-interpolation-filters:linearRGB;solid-color:#000000;solid-opacity:1;vector-effect:none;fill:#ffffff;fill-opacity:1;fill-rule:nonzero;stroke-width:0.248416;stroke-linecap:butt;stroke-linejoin:miter;stroke-miterlimit:4;stroke-dasharray:none;stroke-dashoffset:0;stroke-opacity:1;color-rendering:auto;image-rendering:auto;shape-rendering:auto;text-rendering:auto;enable-background:accumulate;stop-color:#000000;stop-opacity:1;stroke:none;opacity:1"
         d="M 38.888864,4.0957042 C 38.103871,3.7777326 37.25926,3.6187469 36.335155,3.6187469 c -1.381189,0 -2.43447,0.3875278 -3.070413,1.1228369 -0.655816,0.7452458 -1.17252,2.3549766 -1.17252,3.6268628 0,0.5365769 0.168923,1.0632173 0.447148,1.3811888 0.417337,0.4968306 1.122837,0.7253726 2.245674,0.7253726 0.943978,0 1.589857,-0.09937 2.672948,-0.417338 l 0.46702,-1.9475753 c -0.745245,0.1689224 -1.093027,0.2186054 -1.589857,0.2186054 -1.023471,0 -1.371252,-0.1987322 -1.371252,-0.7949288 0,-0.3775912 0.139112,-0.7452458 0.367654,-1.0035976 0.288162,-0.3179716 0.725373,-0.4670207 1.371252,-0.4670207 0.556451,0 1.043344,0.069556 1.659414,0.228542 z"
         id="path840" />
      <path
         style="color:#000000;font-style:normal;font-variant:normal;font-weight:normal;font-stretch:normal;font-size:9.93661px;line-height:1.25;font-family:'Antique Olive T Compact';-inkscape-font-specification:'Antique Olive T Compact, Normal';font-variant-ligatures:normal;font-variant-position:normal;font-variant-caps:normal;font-variant-numeric:normal;font-variant-alternates:normal;font-variant-east-asian:normal;font-feature-settings:normal;font-variation-settings:normal;text-indent:0;text-align:start;text-decoration:none;text-decoration-line:none;text-decoration-style:solid;text-decoration-color:#000000;letter-spacing:0px;word-spacing:0px;text-transform:none;writing-mode:lr-tb;direction:ltr;text-orientation:mixed;dominant-baseline:auto;baseline-shift:baseline;text-anchor:start;white-space:normal;shape-padding:0;shape-margin:0;inline-size:0;clip-rule:nonzero;display:inline;overflow:visible;visibility:visible;isolation:auto;mix-blend-mode:normal;color-interpolation:sRGB;color-interpolation-filters:linearRGB;solid-color:#000000;solid-opacity:1;vector-effect:none;fill:#ffffff;fill-opacity:1;fill-rule:nonzero;stroke-width:0.248416;stroke-linecap:butt;stroke-linejoin:miter;stroke-miterlimit:4;stroke-dasharray:none;stroke-dashoffset:0;stroke-opacity:1;color-rendering:auto;image-rendering:auto;shape-rendering:auto;text-rendering:auto;enable-background:accumulate;stop-color:#000000;stop-opacity:1;stroke:none;opacity:1"
         d="m 41.92945,4.7813303 c -0.377591,0.049683 -0.685626,0.069556 -1.152647,0.069556 -0.46702,0 -0.854548,-0.019873 -1.361315,-0.069556 l -1.341442,5.5943117 h 2.513962 z M 41.124585,4.4732954 c 0.476957,0 0.665753,-0.02981 0.784992,-0.1490492 0.139113,-0.1291759 0.238479,-0.4272742 0.238479,-0.7253725 0,-0.2980984 -0.129176,-0.3477814 -0.824739,-0.3477814 h -0.745246 c -0.06956,0 -0.228542,0.00994 -0.357718,0.019873 -0.268288,0.02981 -0.337844,0.05962 -0.427274,0.1589858 -0.09937,0.1192393 -0.188796,0.4173376 -0.188796,0.6558163 0,0.1689223 0.03975,0.2583518 0.129176,0.2980983 0.109303,0.05962 0.427275,0.089429 0.794929,0.089429 z"
         id="path842" />
      <path
         style="color:#000000;font-style:normal;font-variant:normal;font-weight:normal;font-stretch:normal;font-size:9.93661px;line-height:1.25;font-family:'Antique Olive T Compact';-inkscape-font-specification:'Antique Olive T Compact, Normal';font-variant-ligatures:normal;font-variant-position:normal;font-variant-caps:normal;font-variant-numeric:normal;font-variant-alternates:normal;font-variant-east-asian:normal;font-feature-settings:normal;font-variation-settings:normal;text-indent:0;text-align:start;text-decoration:none;text-decoration-line:none;text-decoration-style:solid;text-decoration-color:#000000;letter-spacing:0px;word-spacing:0px;text-transform:none;writing-mode:lr-tb;direction:ltr;text-orientation:mixed;dominant-baseline:auto;baseline-shift:baseline;text-anchor:start;white-space:normal;shape-padding:0;shape-margin:0;inline-size:0;clip-rule:nonzero;display:inline;overflow:visible;visibility:visible;isolation:auto;mix-blend-mode:normal;color-interpolation:sRGB;color-interpolation-filters:linearRGB;solid-color:#000000;solid-opacity:1;vector-effect:none;fill:#ffffff;fill-opacity:1;fill-rule:nonzero;stroke-width:0.248416;stroke-linecap:butt;stroke-linejoin:miter;stroke-miterlimit:4;stroke-dasharray:none;stroke-dashoffset:0;stroke-opacity:1;color-rendering:auto;image-rendering:auto;shape-rendering:auto;text-rendering:auto;enable-background:accumulate;stop-color:#000000;stop-opacity:1;stroke:none;opacity:1"
         d="m 49.203047,4.7813303 h -2.513963 c -0.05962,0.178859 -0.06956,0.2384786 -0.119239,0.5365769 l -0.119239,0.6558163 h -0.04968 V 5.834611 c 0,-0.894295 -0.467021,-1.2718862 -1.540175,-1.2718862 -1.1129,0 -1.8184,0.3974645 -2.325167,1.3215692 -0.417337,0.7452458 -0.735309,1.987322 -0.735309,2.881617 0,1.1228369 0.596197,1.69916 1.748844,1.69916 1.073154,0 1.599794,-0.308035 2.066815,-1.2222027 h 0.04968 C 45.506628,9.6800791 45.367515,10.17691 45.347642,10.375642 h 2.513962 z M 45.456945,6.649413 c 0.427274,0 0.655816,0.178859 0.655816,0.5167037 0,0.2682885 -0.109303,0.6856261 -0.258352,0.993661 -0.178859,0.3676546 -0.46702,0.5564502 -0.844612,0.5564502 -0.397464,0 -0.61607,-0.2086688 -0.61607,-0.5763234 0,-0.8843583 0.437211,-1.4904915 1.063218,-1.4904915 z"
         id="path844" />
    </g>
  </g>
</svg>
